<mxfile host="www.draw.io" modified="2020-03-08T03:30:41.646Z" agent="Mozilla/5.0 (Windows NT 10.0; Win64; x64) AppleWebKit/537.36 (KHTML, like Gecko) Chrome/80.0.3987.116 Safari/537.36" etag="BM9I1OpIQc0vNHgNHd-A" version="12.8.1" type="github">
  <diagram id="Ri3Z-LBDUVhtdoaRmwfp" name="Page-1">
    <mxGraphModel dx="509" dy="572" grid="1" gridSize="10" guides="1" tooltips="1" connect="1" arrows="1" fold="1" page="1" pageScale="1" pageWidth="850" pageHeight="1100" math="0" shadow="0">
      <root>
        <mxCell id="0" />
        <mxCell id="1" parent="0" />
        <mxCell id="IheUh48w6fJ3VRYjB8pa-1" value="input(a,b)" style="rounded=1;whiteSpace=wrap;html=1;" vertex="1" parent="1">
          <mxGeometry x="150" y="40" width="120" height="60" as="geometry" />
        </mxCell>
        <mxCell id="IheUh48w6fJ3VRYjB8pa-2" value="if (a.length == 0)" style="rounded=1;whiteSpace=wrap;html=1;" vertex="1" parent="1">
          <mxGeometry x="150" y="150" width="120" height="60" as="geometry" />
        </mxCell>
        <mxCell id="IheUh48w6fJ3VRYjB8pa-3" value="return false;" style="rounded=1;whiteSpace=wrap;html=1;" vertex="1" parent="1">
          <mxGeometry x="150" y="250" width="120" height="60" as="geometry" />
        </mxCell>
        <mxCell id="IheUh48w6fJ3VRYjB8pa-4" value="int low = 0;&lt;br&gt;int height = a.length - 1" style="rounded=1;whiteSpace=wrap;html=1;" vertex="1" parent="1">
          <mxGeometry x="60" y="400" width="150" height="60" as="geometry" />
        </mxCell>
        <mxCell id="IheUh48w6fJ3VRYjB8pa-5" value="while (low &amp;lt;= high)" style="rounded=1;whiteSpace=wrap;html=1;" vertex="1" parent="1">
          <mxGeometry x="230" y="340" width="120" height="60" as="geometry" />
        </mxCell>
        <mxCell id="IheUh48w6fJ3VRYjB8pa-6" value="int middle = (low + height) / 2" style="rounded=1;whiteSpace=wrap;html=1;" vertex="1" parent="1">
          <mxGeometry x="240" y="480" width="120" height="60" as="geometry" />
        </mxCell>
      </root>
    </mxGraphModel>
  </diagram>
</mxfile>
